<?xml version="1.0" encoding="UTF-8"?>
<svg id="Layer_1" xmlns="http://www.w3.org/2000/svg" version="1.1" viewBox="0 0 161.2 161.2">
  <!-- Generator: Adobe Illustrator 29.1.0, SVG Export Plug-In . SVG Version: 2.1.0 Build 142)  -->
  <defs>
    <style>
      .st0 {
        fill: none;
        stroke: #999;
        stroke-linecap: round;
        stroke-linejoin: round;
        stroke-width: .25px;stroke-miterlimit="10"
      }
    </style>
  </defs>
  <path class="st0" d="M.4.7H.4M.4.7H.4M.8,6.4C3.4,3.1,3.6,1,6,.3M.8,6.4C2.6,4.6,3.7,2.2,6,.3M.5,12.8c2.7-.3,4.5-3.7,10.5-12.1M.5,12.8c1.7-1.9,3.9-6.3,10.5-12.1M.2,19.1C5,10.6,11.2,9.4,16.7.3M.2,19.1C4.9,13.9,14.2,6.3,16.7.3M.6,24.8C10.9,18.6,15.5,4.7,21.6.6M.6,24.8C5.6,16.3,10.8,12.8,21.6.6M.4,31.2C10.8,22,16.8,19.5,27.3.2M.4,31.2C6.7,25,10.3,16.4,27.3.2M.8,36.8C9.7,28.5,12.1,20.1,32.3.6M.8,36.8C14.9,23.9,26.3,7.8,32.3.6M.5,43.2C10.7,31.5,15.2,20.3,37.3,1M.5,43.2C12.3,29.3,25.8,14.4,37.3,1M.3,49.6C12.6,36,17.6,24.1,42.9.6M.3,49.6C11.2,36.9,22.6,20,42.9.6M.7,55.3C11,38,24.2,24.9,47.9.9M.7,55.3C15.7,37.2,32.2,17.4,47.9.9M.4,61.7C22.3,43,34.2,20.7,53.5.5M.4,61.7C18.3,37,39.4,16.2,53.5.5M.8,67.3C25.6,38.9,46.1,19.4,58.5.9M.8,67.3C22.3,41.3,46.7,16.6,58.5.9M.5,73.7C24.2,55.4,41.7,32.9,64.2.5M.5,73.7C16.6,55.2,31.8,38.7,64.2.5M.3,80.1C13,57.7,34.1,46.2,69.2.9M.3,80.1C26,52.2,49.5,24.3,69.2.9M.7,85.8C25,57.1,44.6,31.7,74.8.5M.7,85.8C22.7,59.4,44.5,34.4,74.8.5M.4,92.1C29.9,56.5,60.8,15.7,79.8.8M.4,92.1C28.1,59.5,59.5,26,79.8.8M.8,97.8C30.8,64.9,67.3,25.8,85.4.4M.8,97.8C33.7,60.2,68.4,24.7,85.4.4M.5,104.2C33.2,72.4,55.6,40.5,90.4.8M.5,104.2C33.6,67.2,66.2,29.4,90.4.8M.3,110.6C31.8,73.2,66.5,37.6,96,.4M.3,110.6C37,67.2,75.9,22.3,96,.4M.7,116.2C35.7,78.8,61.2,46.3,101,.8M.7,116.2C36.6,71.8,71.5,29.6,101,.8M.4,122.6C37.1,71.1,74.2,26.4,106.7.4M.4,122.6C40.8,78.7,75.8,35.9,106.7.4M.8,128.3C46.1,86,85,38.8,111.7.7M.8,128.3C35.8,92.1,69.7,49.9,111.7.7M.5,134.7C40.7,89.5,78.7,40.1,117.3.3M.5,134.7C22.4,104.7,50.5,74.6,117.3.3M.3,141.1C30.4,110.3,55.7,78.2,122.3.7M.3,141.1C31.1,108.9,60.5,73.8,122.3.7M.7,146.7C50.7,88.1,92.8,34.3,127.9.3M.7,146.7C33.2,110,62.7,74.2,127.9.3M.4,153.1C49.6,95.2,96.7,38.4,132.9.7M.4,153.1C45.7,101.4,88.4,50.9,132.9.7M.8,158.8C36.1,117.5,79.3,70.6,138.6.3M.8,158.8C33.9,123.2,65.2,86.1,138.6.3M4.5,160.6C52.8,102.9,101.7,47.8,143.6.6M4.5,160.6C47.3,113.2,87.5,63.3,143.6.6M9.5,161C47.9,108,92.3,58.3,148.5,1M9.5,161C41.9,122.9,79.1,82,148.5,1M15.1,160.6C42.5,128.5,73.9,94.4,154.2.6M15.1,160.6C63.9,106.4,108,53.2,154.2.6M20.1,161C58.9,119,102,72,159.2,1M20.1,161C67.4,105.6,113.5,50.7,159.2,1M25.7,160.6C53.2,127.3,86.6,91.1,160.9,5.1M25.7,160.6C71.8,103,119.7,49.7,160.9,5.1M30.7,160.9C59.2,123.5,86.9,91.3,160.6,11.5M30.7,160.9C62.7,123.4,97.4,87.3,160.6,11.5M36.4,160.5c30.3-36.5,55.1-70.5,124-142.6M36.4,160.5c29.8-35.6,59.8-73.4,124-142.6M41.3,160.9c35.2-41.7,63.2-79.5,119.4-137.4M41.3,160.9c29.6-34.3,56.9-65.3,119.4-137.4M47,160.5c34.6-31.4,60.9-70.7,113.5-130.6M47,160.5c40.7-49.2,79.3-93,113.5-130.6M52,160.8c27.9-29,55.6-61.6,108.9-125.3M52,160.8c30.2-34.9,58.2-67.1,108.9-125.3M57.6,160.5c28.8-36.8,59.3-79.2,103-118.5M57.6,160.5c38.9-43.5,75.7-84.9,103-118.5M62.6,160.8c26.9-29.5,51.4-52.9,97.8-112.5M62.6,160.8c21.5-25.9,47.2-53.6,97.8-112.5M68.2,160.4c30.3-43.8,66.6-83.6,92.5-106.4M68.2,160.4c25.4-32.2,52.1-58.6,92.5-106.4M73.2,160.8c15.1-23.4,38.9-43.3,87.3-100.4M73.2,160.8c31.1-35.2,61-74.6,87.3-100.4M78.9,160.4c20.4-17.5,37.2-41.4,82-94.3M78.9,160.4c21.9-24.1,41.8-45.3,82-94.3M83.9,160.7c25.5-27.3,40.8-46.9,76.8-88.3M83.9,160.7c27.9-36.6,59.7-71.8,76.8-88.3M89.5,160.3c25.9-28.5,52.5-58.7,70.9-81.5M89.5,160.3c22.6-22.8,39.6-46.5,70.9-81.5M94.5,160.7c16.1-24,41.8-45.6,66.3-76.2M94.5,160.7c25-26.5,51.7-55.4,66.3-76.2M100.1,160.3c24-29.8,44-51,60.4-69.4M100.1,160.3c24.2-24.9,44.1-49,60.4-69.4M105.1,160.7c15.8-27.6,40.4-45.8,55.8-64.2M105.1,160.7c14-19.1,29.5-33.3,55.8-64.2M110.8,160.3c17.5-18.5,33.1-41.2,49.9-57.4M110.8,160.3c19.2-18.6,35.3-40.4,49.9-57.4M115.8,160.6c12.3-13,29-31.8,44.6-51.3M115.8,160.6c16.1-21.1,34.3-39.7,44.6-51.3M120.8,161c6.2-9.2,17-23.4,40-46M120.8,161c9-16,23.7-27.3,40-46M126.4,160.6c13.8-17.5,24.1-33,34.1-39.2M126.4,160.6c7.8-10.9,20-20,34.1-39.2M131.4,161c14.4-14.4,22.8-29,29.5-34M131.4,161c7.6-8,15.5-18.6,29.5-34M137,160.6c8.4-10.3,18-19.6,23.6-27.2M137,160.6c9.1-8.5,16.3-19.5,23.6-27.2M142,160.9c9.5-9.5,13.4-16.1,18.4-21.1M142,160.9c3.8-7.9,9.6-14.7,18.4-21.1M147.7,160.5c5.4-5.6,10.3-10.5,13.1-15.1M147.7,160.5c4-5.5,9.5-11.6,13.1-15.1M152.6,160.9c1.9-3.7,7.3-4.6,7.9-9.1M152.6,160.9c4-4.1,5.6-5.9,7.9-9.1M158.3,160.5c.3-.4,1.4-.7,2.6-3M158.3,160.5c.8-1.2,2.4-2.3,2.6-3" pointer-events="all"/>
</svg>